<mxfile host="Electron" modified="2023-05-27T15:14:30.870Z" agent="Mozilla/5.0 (Macintosh; Intel Mac OS X 10_15_7) AppleWebKit/537.36 (KHTML, like Gecko) draw.io/21.2.1 Chrome/112.0.5615.87 Electron/24.1.2 Safari/537.36" etag="l46Wb4e3V-R1ClxvV8Ya" version="21.2.1" type="device">
  <diagram name="Page-1" id="H1nZVYqxkzLZFgEqRADx">
    <mxGraphModel dx="3696" dy="5380" grid="1" gridSize="10" guides="1" tooltips="1" connect="1" arrows="1" fold="1" page="1" pageScale="1" pageWidth="850" pageHeight="1100" math="0" shadow="0">
      <root>
        <mxCell id="0" />
        <mxCell id="1" parent="0" />
        <mxCell id="AsBp8XiL8Dx4Y6rQVwFH-1969" value="R, W: 118, H: 103, ORDER: 12, GC: {43, 30, 45, 13, 9, 8, 1, 7, 4, 6, 60, 58} " style="text;html=1;strokeColor=none;fillColor=none;align=center;verticalAlign=middle;whiteSpace=wrap;rounded=0;flipV=1;" parent="1" vertex="1">
          <mxGeometry x="70" y="80" width="1180" height="30" as="geometry" />
        </mxCell>
        <mxCell id="AsBp8XiL8Dx4Y6rQVwFH-3633" value="R, W: 118, H: 69, ORDER: 15, GC: {31, 24, 26, 7, 17, 37, 15, 11, 38, 4, 12, 32, 28, 8, 20} " style="text;html=1;strokeColor=none;fillColor=none;align=center;verticalAlign=middle;whiteSpace=wrap;rounded=0;flipV=1;" parent="1" vertex="1">
          <mxGeometry x="70" y="-790" width="1180" height="30" as="geometry" />
        </mxCell>
        <mxCell id="AsBp8XiL8Dx4Y6rQVwFH-7591" value="R, W: 118, H: 117, ORDER: 18, GC: {55, 30, 33, 18, 12, 9, 24, 6, 15, 7, 17, 8, 31, 62, 25, 2, 29, 27} " style="text;html=1;strokeColor=none;fillColor=none;align=center;verticalAlign=middle;whiteSpace=wrap;rounded=0;flipV=1;" parent="1" vertex="1">
          <mxGeometry x="85" y="2560" width="1180" height="30" as="geometry" />
        </mxCell>
        <mxCell id="AsBp8XiL8Dx4Y6rQVwFH-46777" value="R, W: 118, H: 106, ORDER: 25, GC: {42, 23, 27, 19, 4, 26, 1, 25, 15, 17, 64, 12, 10, 7, 11, 8, 13, 3, 5, 22, 14, 18, 30, 6, 24} " style="text;html=1;strokeColor=none;fillColor=none;align=center;verticalAlign=middle;whiteSpace=wrap;rounded=0;flipV=1;" parent="1" vertex="1">
          <mxGeometry x="70" y="1325" width="1180" height="30" as="geometry" />
        </mxCell>
        <mxCell id="3N5CMRXa4ltf0ZYR368n-1" value="" style="group;flipV=1;" vertex="1" connectable="0" parent="1">
          <mxGeometry x="70" y="-740" width="1180" height="690" as="geometry" />
        </mxCell>
        <mxCell id="761dnnyQ54j-Cl0NHfQN-3634" value="31" style="rounded=0;whiteSpace=wrap;html=1;" parent="3N5CMRXa4ltf0ZYR368n-1" vertex="1">
          <mxGeometry y="380" width="310" height="310" as="geometry" />
        </mxCell>
        <mxCell id="761dnnyQ54j-Cl0NHfQN-3635" value="24" style="rounded=0;whiteSpace=wrap;html=1;" parent="3N5CMRXa4ltf0ZYR368n-1" vertex="1">
          <mxGeometry x="310" y="450" width="240" height="240" as="geometry" />
        </mxCell>
        <mxCell id="761dnnyQ54j-Cl0NHfQN-3636" value="26" style="rounded=0;whiteSpace=wrap;html=1;" parent="3N5CMRXa4ltf0ZYR368n-1" vertex="1">
          <mxGeometry x="550" y="430" width="260" height="260" as="geometry" />
        </mxCell>
        <mxCell id="761dnnyQ54j-Cl0NHfQN-3637" value="7" style="rounded=0;whiteSpace=wrap;html=1;" parent="3N5CMRXa4ltf0ZYR368n-1" vertex="1">
          <mxGeometry x="310" y="380" width="70" height="70" as="geometry" />
        </mxCell>
        <mxCell id="761dnnyQ54j-Cl0NHfQN-3638" value="17" style="rounded=0;whiteSpace=wrap;html=1;" parent="3N5CMRXa4ltf0ZYR368n-1" vertex="1">
          <mxGeometry x="380" y="280" width="170" height="170" as="geometry" />
        </mxCell>
        <mxCell id="761dnnyQ54j-Cl0NHfQN-3639" value="37" style="rounded=0;whiteSpace=wrap;html=1;" parent="3N5CMRXa4ltf0ZYR368n-1" vertex="1">
          <mxGeometry x="810" y="320" width="370" height="370" as="geometry" />
        </mxCell>
        <mxCell id="761dnnyQ54j-Cl0NHfQN-3640" value="15" style="rounded=0;whiteSpace=wrap;html=1;" parent="3N5CMRXa4ltf0ZYR368n-1" vertex="1">
          <mxGeometry x="550" y="280" width="150" height="150" as="geometry" />
        </mxCell>
        <mxCell id="761dnnyQ54j-Cl0NHfQN-3641" value="11" style="rounded=0;whiteSpace=wrap;html=1;" parent="3N5CMRXa4ltf0ZYR368n-1" vertex="1">
          <mxGeometry x="700" y="320" width="110" height="110" as="geometry" />
        </mxCell>
        <mxCell id="761dnnyQ54j-Cl0NHfQN-3642" value="38" style="rounded=0;whiteSpace=wrap;html=1;" parent="3N5CMRXa4ltf0ZYR368n-1" vertex="1">
          <mxGeometry width="380" height="380" as="geometry" />
        </mxCell>
        <mxCell id="761dnnyQ54j-Cl0NHfQN-3643" value="4" style="rounded=0;whiteSpace=wrap;html=1;" parent="3N5CMRXa4ltf0ZYR368n-1" vertex="1">
          <mxGeometry x="700" y="280" width="40" height="40" as="geometry" />
        </mxCell>
        <mxCell id="761dnnyQ54j-Cl0NHfQN-3644" value="12" style="rounded=0;whiteSpace=wrap;html=1;" parent="3N5CMRXa4ltf0ZYR368n-1" vertex="1">
          <mxGeometry x="740" y="200" width="120" height="120" as="geometry" />
        </mxCell>
        <mxCell id="761dnnyQ54j-Cl0NHfQN-3645" value="32" style="rounded=0;whiteSpace=wrap;html=1;" parent="3N5CMRXa4ltf0ZYR368n-1" vertex="1">
          <mxGeometry x="860" width="320" height="320" as="geometry" />
        </mxCell>
        <mxCell id="761dnnyQ54j-Cl0NHfQN-3646" value="28" style="rounded=0;whiteSpace=wrap;html=1;" parent="3N5CMRXa4ltf0ZYR368n-1" vertex="1">
          <mxGeometry x="380" width="280" height="280" as="geometry" />
        </mxCell>
        <mxCell id="761dnnyQ54j-Cl0NHfQN-3647" value="8" style="rounded=0;whiteSpace=wrap;html=1;" parent="3N5CMRXa4ltf0ZYR368n-1" vertex="1">
          <mxGeometry x="660" y="200" width="80" height="80" as="geometry" />
        </mxCell>
        <mxCell id="761dnnyQ54j-Cl0NHfQN-3648" value="20" style="rounded=0;whiteSpace=wrap;html=1;" parent="3N5CMRXa4ltf0ZYR368n-1" vertex="1">
          <mxGeometry x="660" width="200" height="200" as="geometry" />
        </mxCell>
        <mxCell id="3N5CMRXa4ltf0ZYR368n-23" value="" style="group;flipV=1;" vertex="1" connectable="0" parent="1">
          <mxGeometry x="70" y="130" width="1180" height="1030" as="geometry" />
        </mxCell>
        <mxCell id="761dnnyQ54j-Cl0NHfQN-1970" value="43" style="rounded=0;whiteSpace=wrap;html=1;" parent="3N5CMRXa4ltf0ZYR368n-23" vertex="1">
          <mxGeometry y="600" width="430" height="430" as="geometry" />
        </mxCell>
        <mxCell id="761dnnyQ54j-Cl0NHfQN-1971" value="30" style="rounded=0;whiteSpace=wrap;html=1;" parent="3N5CMRXa4ltf0ZYR368n-23" vertex="1">
          <mxGeometry x="430" y="730" width="300" height="300" as="geometry" />
        </mxCell>
        <mxCell id="761dnnyQ54j-Cl0NHfQN-1972" value="45" style="rounded=0;whiteSpace=wrap;html=1;" parent="3N5CMRXa4ltf0ZYR368n-23" vertex="1">
          <mxGeometry x="730" y="580" width="450" height="450" as="geometry" />
        </mxCell>
        <mxCell id="761dnnyQ54j-Cl0NHfQN-1973" value="13" style="rounded=0;whiteSpace=wrap;html=1;" parent="3N5CMRXa4ltf0ZYR368n-23" vertex="1">
          <mxGeometry x="430" y="600" width="130" height="130" as="geometry" />
        </mxCell>
        <mxCell id="761dnnyQ54j-Cl0NHfQN-1974" value="9" style="rounded=0;whiteSpace=wrap;html=1;" parent="3N5CMRXa4ltf0ZYR368n-23" vertex="1">
          <mxGeometry x="560" y="640" width="90" height="90" as="geometry" />
        </mxCell>
        <mxCell id="761dnnyQ54j-Cl0NHfQN-1975" value="8" style="rounded=0;whiteSpace=wrap;html=1;" parent="3N5CMRXa4ltf0ZYR368n-23" vertex="1">
          <mxGeometry x="650" y="650" width="80" height="80" as="geometry" />
        </mxCell>
        <mxCell id="761dnnyQ54j-Cl0NHfQN-1976" value="1" style="rounded=0;whiteSpace=wrap;html=1;" parent="3N5CMRXa4ltf0ZYR368n-23" vertex="1">
          <mxGeometry x="650" y="640" width="10" height="10" as="geometry" />
        </mxCell>
        <mxCell id="761dnnyQ54j-Cl0NHfQN-1977" value="7" style="rounded=0;whiteSpace=wrap;html=1;" parent="3N5CMRXa4ltf0ZYR368n-23" vertex="1">
          <mxGeometry x="660" y="580" width="70" height="70" as="geometry" />
        </mxCell>
        <mxCell id="761dnnyQ54j-Cl0NHfQN-1978" value="4" style="rounded=0;whiteSpace=wrap;html=1;" parent="3N5CMRXa4ltf0ZYR368n-23" vertex="1">
          <mxGeometry x="560" y="600" width="40" height="40" as="geometry" />
        </mxCell>
        <mxCell id="761dnnyQ54j-Cl0NHfQN-1979" value="6" style="rounded=0;whiteSpace=wrap;html=1;" parent="3N5CMRXa4ltf0ZYR368n-23" vertex="1">
          <mxGeometry x="600" y="580" width="60" height="60" as="geometry" />
        </mxCell>
        <mxCell id="761dnnyQ54j-Cl0NHfQN-1980" value="60" style="rounded=0;whiteSpace=wrap;html=1;" parent="3N5CMRXa4ltf0ZYR368n-23" vertex="1">
          <mxGeometry width="600" height="600" as="geometry" />
        </mxCell>
        <mxCell id="761dnnyQ54j-Cl0NHfQN-1981" value="58" style="rounded=0;whiteSpace=wrap;html=1;" parent="3N5CMRXa4ltf0ZYR368n-23" vertex="1">
          <mxGeometry x="600" width="580" height="580" as="geometry" />
        </mxCell>
        <mxCell id="3N5CMRXa4ltf0ZYR368n-24" value="" style="group;flipV=1;" vertex="1" connectable="0" parent="1">
          <mxGeometry x="70" y="1375" width="1180" height="1060" as="geometry" />
        </mxCell>
        <mxCell id="761dnnyQ54j-Cl0NHfQN-46778" value="42" style="rounded=0;whiteSpace=wrap;html=1;" parent="3N5CMRXa4ltf0ZYR368n-24" vertex="1">
          <mxGeometry y="640" width="420" height="420" as="geometry" />
        </mxCell>
        <mxCell id="761dnnyQ54j-Cl0NHfQN-46779" value="23" style="rounded=0;whiteSpace=wrap;html=1;" parent="3N5CMRXa4ltf0ZYR368n-24" vertex="1">
          <mxGeometry x="420" y="830" width="230" height="230" as="geometry" />
        </mxCell>
        <mxCell id="761dnnyQ54j-Cl0NHfQN-46780" value="27" style="rounded=0;whiteSpace=wrap;html=1;" parent="3N5CMRXa4ltf0ZYR368n-24" vertex="1">
          <mxGeometry x="650" y="790" width="270" height="270" as="geometry" />
        </mxCell>
        <mxCell id="761dnnyQ54j-Cl0NHfQN-46781" value="19" style="rounded=0;whiteSpace=wrap;html=1;" parent="3N5CMRXa4ltf0ZYR368n-24" vertex="1">
          <mxGeometry x="420" y="640" width="190" height="190" as="geometry" />
        </mxCell>
        <mxCell id="761dnnyQ54j-Cl0NHfQN-46782" value="4" style="rounded=0;whiteSpace=wrap;html=1;" parent="3N5CMRXa4ltf0ZYR368n-24" vertex="1">
          <mxGeometry x="610" y="790" width="40" height="40" as="geometry" />
        </mxCell>
        <mxCell id="761dnnyQ54j-Cl0NHfQN-46783" value="26" style="rounded=0;whiteSpace=wrap;html=1;" parent="3N5CMRXa4ltf0ZYR368n-24" vertex="1">
          <mxGeometry x="920" y="800" width="260" height="260" as="geometry" />
        </mxCell>
        <mxCell id="761dnnyQ54j-Cl0NHfQN-46784" value="1" style="rounded=0;whiteSpace=wrap;html=1;" parent="3N5CMRXa4ltf0ZYR368n-24" vertex="1">
          <mxGeometry x="920" y="790" width="10" height="10" as="geometry" />
        </mxCell>
        <mxCell id="761dnnyQ54j-Cl0NHfQN-46785" value="25" style="rounded=0;whiteSpace=wrap;html=1;" parent="3N5CMRXa4ltf0ZYR368n-24" vertex="1">
          <mxGeometry x="930" y="550" width="250" height="250" as="geometry" />
        </mxCell>
        <mxCell id="761dnnyQ54j-Cl0NHfQN-46786" value="15" style="rounded=0;whiteSpace=wrap;html=1;" parent="3N5CMRXa4ltf0ZYR368n-24" vertex="1">
          <mxGeometry x="610" y="640" width="150" height="150" as="geometry" />
        </mxCell>
        <mxCell id="761dnnyQ54j-Cl0NHfQN-46787" value="17" style="rounded=0;whiteSpace=wrap;html=1;" parent="3N5CMRXa4ltf0ZYR368n-24" vertex="1">
          <mxGeometry x="760" y="620" width="170" height="170" as="geometry" />
        </mxCell>
        <mxCell id="761dnnyQ54j-Cl0NHfQN-46788" value="64" style="rounded=0;whiteSpace=wrap;html=1;" parent="3N5CMRXa4ltf0ZYR368n-24" vertex="1">
          <mxGeometry width="640" height="640" as="geometry" />
        </mxCell>
        <mxCell id="761dnnyQ54j-Cl0NHfQN-46789" value="12" style="rounded=0;whiteSpace=wrap;html=1;" parent="3N5CMRXa4ltf0ZYR368n-24" vertex="1">
          <mxGeometry x="640" y="520" width="120" height="120" as="geometry" />
        </mxCell>
        <mxCell id="761dnnyQ54j-Cl0NHfQN-46790" value="10" style="rounded=0;whiteSpace=wrap;html=1;" parent="3N5CMRXa4ltf0ZYR368n-24" vertex="1">
          <mxGeometry x="760" y="520" width="100" height="100" as="geometry" />
        </mxCell>
        <mxCell id="761dnnyQ54j-Cl0NHfQN-46791" value="7" style="rounded=0;whiteSpace=wrap;html=1;" parent="3N5CMRXa4ltf0ZYR368n-24" vertex="1">
          <mxGeometry x="860" y="550" width="70" height="70" as="geometry" />
        </mxCell>
        <mxCell id="761dnnyQ54j-Cl0NHfQN-46792" value="11" style="rounded=0;whiteSpace=wrap;html=1;" parent="3N5CMRXa4ltf0ZYR368n-24" vertex="1">
          <mxGeometry x="860" y="440" width="110" height="110" as="geometry" />
        </mxCell>
        <mxCell id="761dnnyQ54j-Cl0NHfQN-46793" value="8" style="rounded=0;whiteSpace=wrap;html=1;" parent="3N5CMRXa4ltf0ZYR368n-24" vertex="1">
          <mxGeometry x="970" y="470" width="80" height="80" as="geometry" />
        </mxCell>
        <mxCell id="761dnnyQ54j-Cl0NHfQN-46794" value="13" style="rounded=0;whiteSpace=wrap;html=1;" parent="3N5CMRXa4ltf0ZYR368n-24" vertex="1">
          <mxGeometry x="1050" y="420" width="130" height="130" as="geometry" />
        </mxCell>
        <mxCell id="761dnnyQ54j-Cl0NHfQN-46795" value="3" style="rounded=0;whiteSpace=wrap;html=1;" parent="3N5CMRXa4ltf0ZYR368n-24" vertex="1">
          <mxGeometry x="970" y="440" width="30" height="30" as="geometry" />
        </mxCell>
        <mxCell id="761dnnyQ54j-Cl0NHfQN-46796" value="5" style="rounded=0;whiteSpace=wrap;html=1;" parent="3N5CMRXa4ltf0ZYR368n-24" vertex="1">
          <mxGeometry x="1000" y="420" width="50" height="50" as="geometry" />
        </mxCell>
        <mxCell id="761dnnyQ54j-Cl0NHfQN-46797" value="22" style="rounded=0;whiteSpace=wrap;html=1;" parent="3N5CMRXa4ltf0ZYR368n-24" vertex="1">
          <mxGeometry x="640" y="300" width="220" height="220" as="geometry" />
        </mxCell>
        <mxCell id="761dnnyQ54j-Cl0NHfQN-46798" value="14" style="rounded=0;whiteSpace=wrap;html=1;" parent="3N5CMRXa4ltf0ZYR368n-24" vertex="1">
          <mxGeometry x="860" y="300" width="140" height="140" as="geometry" />
        </mxCell>
        <mxCell id="761dnnyQ54j-Cl0NHfQN-46799" value="18" style="rounded=0;whiteSpace=wrap;html=1;" parent="3N5CMRXa4ltf0ZYR368n-24" vertex="1">
          <mxGeometry x="1000" y="240" width="180" height="180" as="geometry" />
        </mxCell>
        <mxCell id="761dnnyQ54j-Cl0NHfQN-46800" value="30" style="rounded=0;whiteSpace=wrap;html=1;" parent="3N5CMRXa4ltf0ZYR368n-24" vertex="1">
          <mxGeometry x="640" width="300" height="300" as="geometry" />
        </mxCell>
        <mxCell id="761dnnyQ54j-Cl0NHfQN-46801" value="6" style="rounded=0;whiteSpace=wrap;html=1;" parent="3N5CMRXa4ltf0ZYR368n-24" vertex="1">
          <mxGeometry x="940" y="240" width="60" height="60" as="geometry" />
        </mxCell>
        <mxCell id="761dnnyQ54j-Cl0NHfQN-46802" value="24" style="rounded=0;whiteSpace=wrap;html=1;" parent="3N5CMRXa4ltf0ZYR368n-24" vertex="1">
          <mxGeometry x="940" width="240" height="240" as="geometry" />
        </mxCell>
        <mxCell id="3N5CMRXa4ltf0ZYR368n-25" value="" style="group;flipV=1;" vertex="1" connectable="0" parent="1">
          <mxGeometry x="85" y="2610" width="1180" height="1170" as="geometry" />
        </mxCell>
        <mxCell id="761dnnyQ54j-Cl0NHfQN-7592" value="55" style="rounded=0;whiteSpace=wrap;html=1;" parent="3N5CMRXa4ltf0ZYR368n-25" vertex="1">
          <mxGeometry y="620" width="550" height="550" as="geometry" />
        </mxCell>
        <mxCell id="761dnnyQ54j-Cl0NHfQN-7593" value="30" style="rounded=0;whiteSpace=wrap;html=1;" parent="3N5CMRXa4ltf0ZYR368n-25" vertex="1">
          <mxGeometry x="550" y="870" width="300" height="300" as="geometry" />
        </mxCell>
        <mxCell id="761dnnyQ54j-Cl0NHfQN-7594" value="33" style="rounded=0;whiteSpace=wrap;html=1;" parent="3N5CMRXa4ltf0ZYR368n-25" vertex="1">
          <mxGeometry x="850" y="840" width="330" height="330" as="geometry" />
        </mxCell>
        <mxCell id="761dnnyQ54j-Cl0NHfQN-7595" value="18" style="rounded=0;whiteSpace=wrap;html=1;" parent="3N5CMRXa4ltf0ZYR368n-25" vertex="1">
          <mxGeometry x="550" y="690" width="180" height="180" as="geometry" />
        </mxCell>
        <mxCell id="761dnnyQ54j-Cl0NHfQN-7596" value="12" style="rounded=0;whiteSpace=wrap;html=1;" parent="3N5CMRXa4ltf0ZYR368n-25" vertex="1">
          <mxGeometry x="730" y="750" width="120" height="120" as="geometry" />
        </mxCell>
        <mxCell id="761dnnyQ54j-Cl0NHfQN-7597" value="9" style="rounded=0;whiteSpace=wrap;html=1;" parent="3N5CMRXa4ltf0ZYR368n-25" vertex="1">
          <mxGeometry x="850" y="750" width="90" height="90" as="geometry" />
        </mxCell>
        <mxCell id="761dnnyQ54j-Cl0NHfQN-7598" value="24" style="rounded=0;whiteSpace=wrap;html=1;" parent="3N5CMRXa4ltf0ZYR368n-25" vertex="1">
          <mxGeometry x="940" y="600" width="240" height="240" as="geometry" />
        </mxCell>
        <mxCell id="761dnnyQ54j-Cl0NHfQN-7599" value="6" style="rounded=0;whiteSpace=wrap;html=1;" parent="3N5CMRXa4ltf0ZYR368n-25" vertex="1">
          <mxGeometry x="730" y="690" width="60" height="60" as="geometry" />
        </mxCell>
        <mxCell id="761dnnyQ54j-Cl0NHfQN-7600" value="15" style="rounded=0;whiteSpace=wrap;html=1;" parent="3N5CMRXa4ltf0ZYR368n-25" vertex="1">
          <mxGeometry x="790" y="600" width="150" height="150" as="geometry" />
        </mxCell>
        <mxCell id="761dnnyQ54j-Cl0NHfQN-7601" value="7" style="rounded=0;whiteSpace=wrap;html=1;" parent="3N5CMRXa4ltf0ZYR368n-25" vertex="1">
          <mxGeometry x="550" y="620" width="70" height="70" as="geometry" />
        </mxCell>
        <mxCell id="761dnnyQ54j-Cl0NHfQN-7602" value="17" style="rounded=0;whiteSpace=wrap;html=1;" parent="3N5CMRXa4ltf0ZYR368n-25" vertex="1">
          <mxGeometry x="620" y="520" width="170" height="170" as="geometry" />
        </mxCell>
        <mxCell id="761dnnyQ54j-Cl0NHfQN-7603" value="8" style="rounded=0;whiteSpace=wrap;html=1;" parent="3N5CMRXa4ltf0ZYR368n-25" vertex="1">
          <mxGeometry x="790" y="520" width="80" height="80" as="geometry" />
        </mxCell>
        <mxCell id="761dnnyQ54j-Cl0NHfQN-7604" value="31" style="rounded=0;whiteSpace=wrap;html=1;" parent="3N5CMRXa4ltf0ZYR368n-25" vertex="1">
          <mxGeometry x="870" y="290" width="310" height="310" as="geometry" />
        </mxCell>
        <mxCell id="761dnnyQ54j-Cl0NHfQN-7605" value="62" style="rounded=0;whiteSpace=wrap;html=1;" parent="3N5CMRXa4ltf0ZYR368n-25" vertex="1">
          <mxGeometry width="620" height="620" as="geometry" />
        </mxCell>
        <mxCell id="761dnnyQ54j-Cl0NHfQN-7606" value="25" style="rounded=0;whiteSpace=wrap;html=1;" parent="3N5CMRXa4ltf0ZYR368n-25" vertex="1">
          <mxGeometry x="620" y="270" width="250" height="250" as="geometry" />
        </mxCell>
        <mxCell id="761dnnyQ54j-Cl0NHfQN-7607" value="2" style="rounded=0;whiteSpace=wrap;html=1;" parent="3N5CMRXa4ltf0ZYR368n-25" vertex="1">
          <mxGeometry x="870" y="270" width="20" height="20" as="geometry" />
        </mxCell>
        <mxCell id="761dnnyQ54j-Cl0NHfQN-7608" value="29" style="rounded=0;whiteSpace=wrap;html=1;" parent="3N5CMRXa4ltf0ZYR368n-25" vertex="1">
          <mxGeometry x="890" width="290" height="290" as="geometry" />
        </mxCell>
        <mxCell id="761dnnyQ54j-Cl0NHfQN-7609" value="27" style="rounded=0;whiteSpace=wrap;html=1;" parent="3N5CMRXa4ltf0ZYR368n-25" vertex="1">
          <mxGeometry x="620" width="270" height="270" as="geometry" />
        </mxCell>
      </root>
    </mxGraphModel>
  </diagram>
</mxfile>
